<svg xmlns="http://www.w3.org/2000/svg" xmlns:xlink="http://www.w3.org/1999/xlink" width="27.068" height="24.615" viewBox="0 0 27.068 24.615"><defs><style>.a{fill:url(#a);}.b{fill:url(#b);}.c{fill:url(#c);}.d{fill:url(#d);}.e{fill:url(#e);}.f{fill:url(#f);}.g{fill:url(#g);}.h{fill:url(#h);}</style><linearGradient id="a" x1="0.317" y1="0.126" x2="0.775" y2="0.657" gradientUnits="objectBoundingBox"><stop offset="0" stop-color="#d4f7ff"/><stop offset="1" stop-color="#a2e3e9"/></linearGradient><linearGradient id="b" x1="0.452" y1="0.204" x2="0.549" y2="1.801" gradientUnits="objectBoundingBox"><stop offset="0" stop-color="#a2e3e9" stop-opacity="0"/><stop offset="1" stop-color="#518cd2"/></linearGradient><linearGradient id="c" x1="0.362" y1="0.385" x2="1.023" y2="0.625" xlink:href="#b"/><linearGradient id="d" x1="0.656" y1="0.443" x2="1.27" y2="0.214" xlink:href="#b"/><linearGradient id="e" x1="0.242" y1="0.138" x2="1.079" y2="0.841" xlink:href="#b"/><linearGradient id="f" x1="0.247" y1="0.292" x2="0.576" y2="0.563" xlink:href="#b"/><linearGradient id="g" x1="0.317" y1="0.386" x2="0.851" y2="0.678" xlink:href="#b"/><linearGradient id="h" x1="0.307" y1="0.438" x2="-0.434" y2="0.592" xlink:href="#b"/></defs><path class="a" d="M46.641,84.175,42.78,78.242a1.244,1.244,0,0,0-.828-.547l-2.041-.358a38.26,38.26,0,0,0-13.2,0l-2.041.358a1.244,1.244,0,0,0-.828.547l-3.862,5.932a1.244,1.244,0,0,0,.073,1.458l12.29,15.282a1.244,1.244,0,0,0,1.938,0l12.29-15.282A1.244,1.244,0,0,0,46.641,84.175Z" transform="translate(-19.774 -76.764)"/><path class="b" d="M46.649,84.175l-3.862-5.932a1.244,1.244,0,0,0-.828-.546l-2.041-.358a38.261,38.261,0,0,0-13.2,0l-2.041.358a1.244,1.244,0,0,0-.828.546l-3.862,5.932a1.242,1.242,0,0,0-.2.755H46.848A1.241,1.241,0,0,0,46.649,84.175Z" transform="translate(-19.782 -76.764)"/><path class="c" d="M114.972,77.921a1.242,1.242,0,0,0-.524-.226l-2.041-.358a38.26,38.26,0,0,0-13.2,0l-2.041.358a1.241,1.241,0,0,0-.524.226l.465,7.008,8.292,16.379a1.253,1.253,0,0,0,.821,0l8.292-16.379Z" transform="translate(-92.27 -76.763)"/><path class="d" d="M104.819,84.929l8.292,16.379a1.253,1.253,0,0,0,.821,0l8.292-16.379s-7.312-8.166-8.7-8.166S104.819,84.929,104.819,84.929Z" transform="translate(-99.987 -76.763)"/><path class="e" d="M24.615,218.523,32.907,234.9a1.226,1.226,0,0,1-.559-.394l-12.29-15.281a1.241,1.241,0,0,1-.273-.821q0,.059,0,.118h4.829Z" transform="translate(-19.783 -210.358)"/><path class="f" d="M273.517,218.523,265.225,234.9a1.228,1.228,0,0,0,.559-.394l12.29-15.281a1.241,1.241,0,0,0,.273-.821c0,.039,0,.079,0,.118h-4.828Z" transform="translate(-251.28 -210.358)"/><path class="g" d="M105.8,76.761c-1.39,0-8.7,8.166-8.7,8.166l-.465-7.007a1.24,1.24,0,0,1,.524-.227l2.041-.357A38.245,38.245,0,0,1,105.8,76.761Z" transform="translate(-92.267 -76.761)"/><path class="h" d="M258.959,100.914l12.29-15.282a1.244,1.244,0,0,0,.073-1.458l-3.862-5.932a1.244,1.244,0,0,0-.828-.547l-2.041-.358a38.257,38.257,0,0,0-6.6-.574v24.614A1.237,1.237,0,0,0,258.959,100.914Z" transform="translate(-244.456 -76.764)"/></svg>