<svg xmlns="http://www.w3.org/2000/svg" width="20.242" height="18.876" viewBox="0 0 20.242 18.876"><defs><style>.a{fill:#ff9100;}.b{fill:#ff641a;}.c{fill:#ffdb57;}.d{fill:#f5ba3d;}.e{fill:#ef9325;}</style></defs><path class="a" d="M51.929,227.716H35.074a.32.32,0,0,0-.32.32v9.917a.32.32,0,0,0,.32.32H51.929a.32.32,0,0,0,.32-.32v-9.917A.32.32,0,0,0,51.929,227.716Z" transform="translate(-33.38 -219.396)"/><path class="b" d="M51.929,227.716H35.074a.32.32,0,0,0-.32.32v1.278H52.248v-1.278A.32.32,0,0,0,51.929,227.716Z" transform="translate(-33.38 -219.396)"/><path class="c" d="M210.2,227.716h-3.266a.32.32,0,0,0-.32.32v9.917a.32.32,0,0,0,.32.32H210.2a.32.32,0,0,0,.32-.32v-9.917A.32.32,0,0,0,210.2,227.716Z" transform="translate(-198.449 -219.396)"/><path class="d" d="M210.2,227.716h-3.266a.32.32,0,0,0-.32.32v1.272h3.9v-1.272A.32.32,0,0,0,210.2,227.716Z" transform="translate(-198.449 -219.396)"/><path class="c" d="M288.561,19.7a6.458,6.458,0,0,0-1.323-2.134.975.975,0,0,0-.733-.281c-.96.022-2.523,1.227-4.648,3.58a.32.32,0,0,0-.082.214v1.691a.32.32,0,0,0,.32.32h4.916a1.678,1.678,0,0,0,1.734-.98A3.377,3.377,0,0,0,288.561,19.7Z" transform="translate(-270.635 -17.282)"/><path class="e" d="M319.809,79.049a.317.317,0,0,0-.042-.092c-.483-.73-1.525-.457-2.315-.1a7.9,7.9,0,0,0-3.281,2.53.32.32,0,0,0,.268.494h3.638a1.818,1.818,0,0,0,1.536-.636A2.5,2.5,0,0,0,319.809,79.049Z" transform="translate(-301.699 -76.077)"/><path class="c" d="M57.213,20.863c-2.124-2.353-3.688-3.557-4.648-3.58a.974.974,0,0,0-.733.281A6.458,6.458,0,0,0,50.51,19.7a3.378,3.378,0,0,0-.184,2.409,1.678,1.678,0,0,0,1.734.98h4.916a.32.32,0,0,0,.32-.32V21.077A.319.319,0,0,0,57.213,20.863Z" transform="translate(-48.194 -17.283)"/><path class="e" d="M55.923,81.389a7.9,7.9,0,0,0-3.281-2.53c-.79-.358-1.833-.63-2.315.1a.32.32,0,0,0-.042.092,2.5,2.5,0,0,0,.2,2.2,1.818,1.818,0,0,0,1.536.636h3.638a.32.32,0,0,0,.268-.494Z" transform="translate(-48.151 -76.078)"/><path class="d" d="M217.052,97.175h-2.677a.32.32,0,0,0-.32.32V99.5a.32.32,0,0,0,.32.32h2.677a.32.32,0,0,0,.32-.32V97.495A.32.32,0,0,0,217.052,97.175Z" transform="translate(-205.592 -94.016)"/><path class="a" d="M19.923,147.943H.32a.32.32,0,0,0-.32.32v3.154a.32.32,0,0,0,.32.32h19.6a.32.32,0,0,0,.32-.32v-3.154A.32.32,0,0,0,19.923,147.943Z" transform="translate(0 -142.777)"/><rect class="c" width="4.91" height="3.793" transform="translate(7.666 5.166)"/></svg>